ffmpeg version N-55546-g1a53ddd Copyright (c) 2000-2013 the FFmpeg developers
  built on Aug 15 2013 15:19:00 with gcc 4.7 (Ubuntu/Linaro 4.7.2-2ubuntu1)
  configuration: 
  libavutil      52. 42.100 / 52. 42.100
  libavcodec     55. 28.100 / 55. 28.100
  libavformat    55. 13.102 / 55. 13.102
  libavdevice    55.  3.100 / 55.  3.100
  libavfilter     3. 82.100 /  3. 82.100
  libswscale      2.  4.100 /  2.  4.100
  libswresample   0. 17.103 /  0. 17.103
Input #0, avi, from 'input.data':
  Duration: N/A, start: 0.000000, bitrate: N/A
    Stream #0:0: Video: vp8 (VP80 / 0x30385056), yuv420p, 300x200, 30 tbr, 30 tbn, 30 tbc
    Stream #0:1: Audio: aac ([255][0][0][0] / 0x00FF), 48000 Hz, stereo, fltp
Output #0, image2, to 'test_frames/out2.png':
  Metadata:
    encoder         : Lavf55.13.102
    Stream #0:0: Video: png, rgb24, 300x200, q=2-31, 200 kb/s, 90k tbn, 30 tbc
Stream mapping:
  Stream #0:0 -> #0:0 (vp8 -> png)
Press [q] to stop, [?] for help
frame=    1 fps=0.0 q=0.0 Lsize=N/A time=00:00:00.03 bitrate=N/A    
video:1kB audio:0kB subtitle:0 global headers:0kB muxing overhead -103.369066%
